<svg width="92" height="93" viewBox="0 0 92 93" fill="none" xmlns="http://www.w3.org/2000/svg">
<path d="M66.7302 87.1002C59.7724 90.657 52.0184 92.3691 44.2098 92.0727C36.4012 91.7763 28.7992 89.4813 22.1311 85.4073C15.4629 81.3332 9.95163 75.6163 6.12437 68.8035C2.29711 61.9907 0.281911 54.3099 0.271525 46.4956C0.261139 38.6814 2.25592 30.9952 6.06505 24.1723C9.87418 17.3493 15.3703 11.6178 22.0275 7.52606C28.6848 3.43428 36.2807 1.11909 44.0885 0.801922C51.8963 0.484759 59.6548 2.17624 66.6221 5.71457L60.6537 17.4668C55.6972 14.9497 50.1778 13.7464 44.6234 13.972C39.0691 14.1976 33.6655 15.8447 28.9295 18.7555C24.1936 21.6664 20.2837 25.7437 17.5739 30.5975C14.8642 35.4513 13.4451 40.9192 13.4525 46.4781C13.4599 52.0371 14.8935 57.5012 17.6161 62.3478C20.3388 67.1943 24.2595 71.2612 29.0032 74.1595C33.7468 77.0578 39.1548 78.6904 44.7097 78.9013C50.2647 79.1121 55.7809 77.8941 60.7306 75.3638L66.7302 87.1002Z" fill="#E226AD"/>
<path d="M57.7146 69.6775C53.7379 71.6918 49.3107 72.652 44.8568 72.4663C40.4028 72.2806 36.071 70.9552 32.2757 68.6169C28.4804 66.2785 25.3485 63.0055 23.1797 59.1109C21.0108 55.2162 19.8776 50.8302 19.8883 46.3724C19.899 41.9146 21.0533 37.5341 23.2408 33.6499C25.4283 29.7657 28.5758 26.5078 32.3823 24.1877C36.1888 21.8676 40.527 20.563 44.9818 20.3987C49.4366 20.2344 53.859 21.2158 57.8261 23.2492L51.8841 34.8421C49.9006 33.8254 47.6893 33.3347 45.462 33.4168C43.2346 33.499 41.0655 34.1513 39.1622 35.3113C37.259 36.4714 35.6852 38.1003 34.5915 40.0424C33.4977 41.9845 32.9205 44.1748 32.9152 46.4037C32.9098 48.6326 33.4765 50.8256 34.5609 52.7729C35.6453 54.7202 37.2113 56.3567 39.1089 57.5259C41.0066 58.6951 43.1725 59.3578 45.3995 59.4506C47.6264 59.5435 49.84 59.0634 51.8284 58.0562L57.7146 69.6775Z" fill="#FFAC18"/>
<path d="M60.0798 37.4227C61.3207 36.6317 62.9867 36.9909 63.6007 38.3283C64.7437 40.8181 65.3515 43.5311 65.372 46.2906C65.3925 49.0502 64.825 51.7719 63.7192 54.2783C63.1251 55.6247 61.4646 56.0087 60.2121 55.2362C58.9595 54.4637 58.5975 52.8265 59.121 51.4511C59.7406 49.8233 60.056 48.0873 60.043 46.3302C60.0299 44.5731 59.6888 42.842 59.045 41.2235C58.5012 39.8561 58.8388 38.2138 60.0798 37.4227Z" fill="#2C344E"/>
<path d="M68.164 26.3735C69.2626 25.3818 70.967 25.4623 71.8653 26.6385C76.2116 32.3297 78.5801 39.3172 78.5596 46.5278C78.539 53.7383 76.1309 60.7122 71.7522 66.3786C70.8473 67.5496 69.1424 67.6205 68.0495 66.6225C66.9566 65.6245 66.8918 63.9366 67.7777 62.7511C71.2681 58.0802 73.1834 52.3904 73.2001 46.5125C73.2169 40.6346 71.3339 34.934 67.8702 30.2434C66.9911 29.0528 67.0655 27.3653 68.164 26.3735Z" fill="#2C344E"/>
<path d="M75.4916 15.1046C76.4782 14.0585 78.1321 14.0053 79.1202 15.05C82.7638 18.9017 85.7136 23.3635 87.8313 28.2387C90.2953 33.911 91.5816 40.0246 91.6122 46.2088C91.6429 52.3931 90.4172 58.5191 88.0095 64.2155C85.9401 69.1114 83.0347 73.6022 79.4294 77.4898C78.4516 78.5442 76.7973 78.5074 75.8004 77.4711C74.8035 76.4349 74.8423 74.7921 75.8123 73.7306C78.9136 70.3369 81.4182 66.4345 83.213 62.1882C85.3462 57.1413 86.4321 51.7137 86.405 46.2346C86.3779 40.7555 85.2382 35.3389 83.0552 30.3134C81.2184 26.0851 78.6753 22.2077 75.5405 18.8448C74.5601 17.793 74.505 16.1507 75.4916 15.1046Z" fill="#2C344E"/>
</svg>
