<svg width="92" height="93" viewBox="0 0 92 93" fill="none" xmlns="http://www.w3.org/2000/svg">
<path d="M66.5891 87.0155C59.6313 90.5723 51.8773 92.2844 44.0687 91.988C36.26 91.6916 28.6581 89.3966 21.9899 85.3225C15.3218 81.2485 9.81051 75.5316 5.98326 68.7188C2.156 61.906 0.140797 54.2252 0.130411 46.4109C0.120026 38.5967 2.1148 30.9105 5.92394 24.0876C9.73307 17.2646 15.2291 11.5331 21.8864 7.44134C28.5437 3.34957 36.1396 1.03437 43.9473 0.717205C51.7551 0.400042 59.5137 2.09152 66.481 5.62985L60.5125 17.3821C55.5561 14.865 50.0367 13.6617 44.4823 13.8873C38.9279 14.1129 33.5243 15.7599 28.7884 18.6708C24.0525 21.5817 20.1426 25.659 17.4328 30.5128C14.723 35.3665 13.304 40.8344 13.3114 46.3934C13.3187 51.9524 14.7523 57.4165 17.475 62.263C20.1977 67.1096 24.1184 71.1765 28.862 74.0748C33.6057 76.973 39.0137 78.6057 44.5686 78.8165C50.1236 79.0274 55.6398 77.8094 60.5895 75.2791L66.5891 87.0155Z" fill="#F633BF"/>
<path d="M57.5735 69.5928C53.5967 71.6071 49.1696 72.5673 44.7157 72.3816C40.2617 72.1959 35.9299 70.8705 32.1346 68.5321C28.3393 66.1938 25.2074 62.9208 23.0386 59.0261C20.8697 55.1315 19.7364 50.7455 19.7471 46.2877C19.7578 41.8299 20.9122 37.4494 23.0997 33.5652C25.2872 29.681 28.4347 26.423 32.2412 24.103C36.0477 21.7829 40.3859 20.4783 44.8406 20.314C49.2954 20.1497 53.7179 21.1311 57.685 23.1644L51.743 34.7573C49.7595 33.7407 47.5482 33.2499 45.3208 33.3321C43.0934 33.4143 40.9244 34.0666 39.0211 35.2266C37.1179 36.3866 35.5441 38.0156 34.4504 39.9577C33.3566 41.8998 32.7794 44.0901 32.7741 46.319C32.7687 48.5479 33.3354 50.7409 34.4198 52.6882C35.5042 54.6355 37.0702 56.272 38.9678 57.4412C40.8655 58.6103 43.0314 59.273 45.2584 59.3659C47.4853 59.4587 49.6989 58.9786 51.6873 57.9715L57.5735 69.5928Z" fill="#FFB124"/>
<path d="M59.9387 37.338C61.1796 36.5469 62.8456 36.9062 63.4596 38.2436C64.6026 40.7334 65.2104 43.4464 65.2309 46.2059C65.2514 48.9655 64.6839 51.6872 63.5781 54.1936C62.984 55.54 61.3235 55.924 60.071 55.1515C58.8184 54.3789 58.4564 52.7418 58.9799 51.3664C59.5995 49.7386 59.9149 48.0026 59.9019 46.2455C59.8888 44.4884 59.5476 42.7573 58.9039 41.1388C58.3601 39.7714 58.6977 38.129 59.9387 37.338Z" fill="#E5E9F3"/>
<path d="M68.0229 26.2888C69.1215 25.2971 70.8259 25.3776 71.7242 26.5538C76.0705 32.245 78.439 39.2325 78.4184 46.443C78.3979 53.6536 75.9898 60.6275 71.6111 66.2939C70.7062 67.4649 69.0013 67.5357 67.9084 66.5378C66.8155 65.5398 66.7507 63.8519 67.6366 62.6663C71.127 57.9955 73.0423 52.3057 73.059 46.4278C73.0758 40.5499 71.1928 34.8493 67.7291 30.1586C66.85 28.9681 66.9244 27.2805 68.0229 26.2888Z" fill="#E5E9F3"/>
<path d="M75.3505 15.0199C76.3371 13.9738 77.9909 13.9206 78.9791 14.9652C82.6227 18.817 85.5725 23.2788 87.6902 28.154C90.1542 33.8263 91.4405 39.9399 91.4711 46.1241C91.5017 52.3083 90.276 58.4344 87.8683 64.1308C85.799 69.0267 82.8935 73.5175 79.2883 77.4051C78.3105 78.4595 76.6562 78.4227 75.6593 77.3864C74.6624 76.3502 74.7012 74.7074 75.6712 73.6459C78.7725 70.2521 81.2771 66.3497 83.0719 62.1034C85.2051 57.0566 86.291 51.629 86.2639 46.1499C86.2368 40.6708 85.0971 35.2542 82.9141 30.2287C81.0773 26.0004 78.5342 22.123 75.3994 18.7601C74.4189 17.7083 74.3639 16.066 75.3505 15.0199Z" fill="#E5E9F3"/>
</svg>
